<?xml version="1.0" encoding="UTF-8" standalone="no"?>
<svg
   viewBox="0 0 48 48"
   version="1.1"
   id="svg20"
   sodipodi:docname="Antu_Charm.svg"
   inkscape:version="1.1.2 (b8e25be833, 2022-02-05)"
   xmlns:inkscape="http://www.inkscape.org/namespaces/inkscape"
   xmlns:sodipodi="http://sodipodi.sourceforge.net/DTD/sodipodi-0.dtd"
   xmlns="http://www.w3.org/2000/svg"
   xmlns:svg="http://www.w3.org/2000/svg">
  <sodipodi:namedview
     id="namedview22"
     pagecolor="#ffffff"
     bordercolor="#666666"
     borderopacity="1.0"
     inkscape:pageshadow="2"
     inkscape:pageopacity="0.0"
     inkscape:pagecheckerboard="0"
     showgrid="false"
     inkscape:snap-bbox="true"
     inkscape:bbox-paths="true"
     inkscape:bbox-nodes="true"
     inkscape:snap-bbox-edge-midpoints="true"
     inkscape:snap-bbox-midpoints="true"
     inkscape:snap-intersection-paths="true"
     inkscape:snap-smooth-nodes="true"
     inkscape:snap-midpoints="true"
     inkscape:snap-object-midpoints="true"
     inkscape:snap-center="true"
     inkscape:snap-text-baseline="true"
     inkscape:snap-page="true"
     inkscape:zoom="8.5416667"
     inkscape:cx="15.278049"
     inkscape:cy="20.429268"
     inkscape:window-width="1920"
     inkscape:window-height="1013"
     inkscape:window-x="-9"
     inkscape:window-y="-9"
     inkscape:window-maximized="1"
     inkscape:current-layer="g18" />
  <defs
     id="defs12">
    <linearGradient
       id="0"
       x1="-28.999"
       y1="514.82"
       x2="-15.58"
       y2="-56.05"
       gradientUnits="userSpaceOnUse"
       gradientTransform="matrix(0.07843,0,0,0.07847,34.475,6.536)">
      <stop
         stop-color="#d3d3d3"
         id="stop2" />
      <stop
         offset="1"
         stop-color="#fcf9f9"
         id="stop4" />
    </linearGradient>
    <linearGradient
       y2="501.79"
       x2="0"
       y1="545.79"
       gradientUnits="userSpaceOnUse"
       id="1">
      <stop
         stop-color="#197cf1"
         id="stop7" />
      <stop
         offset="1"
         stop-color="#20bcfa"
         id="stop9" />
    </linearGradient>
  </defs>
  <g
     transform="matrix(1.8731667,0,0,1.8740822,-741.30863,-957.63566)"
     id="g18">
    <rect
       y="501.79999"
       x="386.57001"
       height="44"
       width="44"
       fill="url(#1)"
       rx="21.999001"
       stroke-width="1.15"
       id="rect14"
       style="fill:url(#1)" />
    <path
       d="M 23.961,0 C 20.707,0 17.613,0.645 14.643,1.92 8.743,4.452 4.422,8.746 1.887,14.658 0.617,17.62 0,20.718 0,23.972 c 0,3.256 0.616,6.383 1.887,9.346 2.535,5.912 6.857,10.229 12.756,12.762 2.971,1.275 6.06,1.92 9.318,1.92 3.254,0 6.369,-0.652 9.342,-1.92 C 39.252,43.541 43.551,39.22 46.082,33.318 47.356,30.346 48,27.228 48,23.972 48,20.717 47.357,17.63 46.082,14.658 43.551,8.755 39.252,4.458 33.303,1.92 30.33,0.651 27.216,0 23.961,0 m -1.046665,12.116212 c 0.731489,0 1.330904,0.597623 1.330904,1.330905 v 9.111345 l 5.164052,4.039925 c 0.597622,0.443436 0.688461,1.285485 0.245025,1.861593 -0.243829,0.332875 -0.644834,0.507979 -1.043448,0.507979 -0.288054,0 -0.574315,-0.109963 -0.818145,-0.286859 l -5.69474,-4.43316 c -0.310166,-0.24383 -0.512162,-0.620074 -0.512162,-1.044644 v -9.755582 c 0,-0.731489 0.597622,-1.330904 1.329709,-1.330904 z"
       transform="matrix(0.95834,0,0,0.958,385.55,500.8)"
       fill="url(#0)"
       opacity="0.99"
       id="path16"
       style="fill:url(#0)"
       sodipodi:nodetypes="cccsccsccsccccscccsccsscc" />
  </g>
</svg>
